#!OML:ASF E:\emotionWalksFemale\Project 1\Capture day 1\Session 1\Female1.ASF
:FULLY-SPECIFIED
:DEGREES
634
root 7.01319 15.2788 23.3445 178.666 1.33762 -182.969
lowerback 6.4878 -0.743667 -1.76273
upperback -4.69313 -1.02874 0.593811
thorax -8.55431 -0.331671 1.75265
lowerneck -3.14442 -1.99021 -4.35868
upperneck 5.36473 -2.46913 1.56065
head 2.32132 -1.25657 1.17427
rclavicle 9.64106e-015 -9.14409e-015
rhumerus -45.9773 5.6246 -86.2174
rradius 30.9121
rwrist 21.3237
rhand -1.04131 -52.0401
rfingers 7.12502
rthumb 24.5926 -80.4804
lclavicle 9.64106e-015 -9.14409e-015
lhumerus -46.0414 -17.0647 102.857
lradius 39.4466
lwrist -9.30541
lhand -6.68624 -34.6901
lfingers 7.12502
lthumb 19.1726 -5.61509
rfemur -30.0198 20.3427 12.289
rtibia 24.1619
rfoot -16.3014 -29.8363
rtoes 2.79851
lfemur 8.06209 -16.1465 -34.8765
ltibia 12.8996
lfoot -19.7951 18.9777
ltoes -16.0524
635
root 7.02168 15.275 23.2676 178.716 1.07313 -183.101
lowerback 6.39064 -0.762298 -1.84573
upperback -4.68276 -1.06129 0.574898
thorax -8.48362 -0.344098 1.78169
lowerneck -3.15302 -1.98186 -4.51878
upperneck 5.28116 -2.45808 1.68485
head 2.30065 -1.25116 1.24271
rclavicle 6.95746e-016 -8.34896e-015
rhumerus -46.0695 5.59075 -86.17
rradius 31.1472
rwrist 21.1305
rhand -1.35977 -51.8832
rfingers 7.12502
rthumb 24.2873 -80.3647
lclavicle 6.95746e-016 -8.34896e-015
lhumerus -46.5953 -17.4331 103.506
lradius 39.4771
lwrist -9.38615
lhand -5.52045 -34.6849
lfingers 7.12502
lthumb 20.2933 -5.72507
rfemur -30.3001 22.2934 11.0514
rtibia 23.2321
rfoot -17.7182 -31.8131
rtoes 5.77285
lfemur 8.48605 -16.2162 -35.0503
ltibia 12.6056
lfoot -19.8037 18.9219
ltoes -16.2187
636
root 7.0359 15.2657 23.2 178.767 0.596661 -183.102
lowerback 6.38328 -0.820815 -1.83091
upperback -4.6631 -1.14117 0.547183
thorax -8.45519 -0.385872 1.75444
lowerneck -3.06743 -1.98155 -4.5573
upperneck 5.06818 -2.47067 1.81498
head 2.21853 -1.25499 1.29125
rclavicle 4.96962e-016 -4.77083e-015
rhumerus -46.0595 5.41564 -86.1567
rradius 31.2779
rwrist 21.0337
rhand -1.22622 -51.9603
rfingers 7.12502
rthumb 24.4154 -80.4246
lclavicle 4.96962e-016 -4.77083e-015
lhumerus -47.1248 -18.0887 104.132
lradius 39.5657
lwrist -9.00176
lhand -4.50218 -34.5981
lfingers 7.12502
lthumb 21.2717 -5.7454
rfemur -30.6116 24.2892 9.87327
rtibia 22.5081
rfoot -19.9062 -33.8443
rtoes 9.61565
lfemur 8.90878 -16.3095 -35.0167
ltibia 12.2472
lfoot -19.7992 18.6043
ltoes -15.9413
637
root 7.0435 15.255 23.1084 178.807 0.573695 -183.03
lowerback 6.01495 -0.714273 -1.66585
upperback -4.60931 -0.974023 0.529344
thorax -8.19048 -0.317699 1.61325
lowerneck -2.86335 -1.9155 -4.67047
upperneck 4.89976 -2.40418 2.12689
head 2.13231 -1.21636 1.41489
rclavicle -1.45113e-014 7.95139e-016
rhumerus -45.979 5.15564 -86.0391
rradius 30.9727
rwrist 21.3141
rhand -1.20108 -51.7946
rfingers 7.12502
rthumb 24.4395 -80.2556
lclavicle -1.45113e-014 7.95139e-016
lhumerus -47.6216 -18.6057 104.692
lradius 39.5331
lwrist -8.61694
lhand -3.47878 -34.8301
lfingers 7.12502
lthumb 22.2544 -6.09146
rfemur -31.0047 26.1028 8.9648
rtibia 21.946
rfoot -21.6773 -35.5884
rtoes 12.0252
lfemur 9.5168 -16.3095 -35.0436
ltibia 11.7999
lfoot -19.9256 18.555
ltoes -15.3446
638
root 7.05612 15.2485 23.0388 178.965 0.157073 -183.137
lowerback 5.96246 -0.743567 -1.76826
upperback -4.69927 -1.02026 0.47531
thorax -8.25453 -0.331803 1.61941
lowerneck -2.55658 -1.93238 -4.61456
upperneck 4.50028 -2.44926 2.18285
head 1.94785 -1.23677 1.42232
rclavicle -8.94531e-015 9.54166e-015
rhumerus -45.9298 4.90331 -85.9406
rradius 30.6518
rwrist 21.8054
rhand -1.18011 -51.9015
rfingers 7.12502
rthumb 24.4596 -80.3598
lclavicle -8.94531e-015 9.54166e-015
lhumerus -48.0278 -18.768 105.002
lradius 39.4864
lwrist -8.16722
lhand -1.76314 -34.9108
lfingers 7.12502
lthumb 23.9006 -6.37805
rfemur -31.4916 27.5173 7.78884
rtibia 21.4102
rfoot -23.7408 -37.1805
rtoes 15.4471
lfemur 9.76556 -16.4411 -35.1337
ltibia 11.6348
lfoot -19.7692 18.4069
ltoes -16.0834
639
root 7.07024 15.2432 22.9675 179.177 -0.192411 -183.176
lowerback 5.80217 -0.599262 -1.76911
upperback -4.77262 -1.06939 0.41332
thorax -8.24232 -0.459007 1.57357
lowerneck -2.59158 -1.98404 -4.4448
upperneck 4.56325 -2.52072 2.11898
head 1.97255 -1.27084 1.36979
rclavicle 2.18663e-015 1.55052e-014
rhumerus -45.9389 4.61011 -85.9144
rradius 30.6417
rwrist 22.0092
rhand 0.316045 -52.9756
rfingers 7.12502
rthumb 25.8931 -81.2326
lclavicle 2.18663e-015 1.55052e-014
lhumerus -48.3462 -18.8895 105.131
lradius 39.5117
lwrist -7.49616
lhand -0.729524 -35.3597
lfingers 7.12502
lthumb 24.8914 -6.96041
rfemur -32.0685 29.0722 6.59844
rtibia 20.9363
rfoot -25.6412 -38.668
rtoes 18.9329
lfemur 9.90123 -16.6298 -35.1367
ltibia 11.5514
lfoot -19.6762 18.3975
ltoes -16.6293
640
root 7.08902 15.2358 22.9019 179.454 -0.667674 -183.118
lowerback 5.69668 -0.637399 -1.74344
upperback -4.86955 -1.12587 0.403286
thorax -8.2838 -0.49069 1.55551
lowerneck -2.61503 -2.04383 -4.37416
upperneck 4.60472 -2.60006 2.07229
head 1.99071 -1.31015 1.34007
rclavicle 6.21202e-015 1.59028e-015
rhumerus -45.1412 3.38118 -85.26
rradius 29.1718
rwrist 23.1831
rhand 0.63325 -52.6239
rfingers 7.12502
rthumb 26.1968 -80.8361
lclavicle 6.21202e-015 1.59028e-015
lhumerus -48.5643 -18.9783 105.14
lradius 39.509
lwrist -6.5713
lhand 0.409581 -35.762
lfingers 7.12502
lthumb 25.9826 -7.51815
rfemur -32.7173 30.5417 5.47809
rtibia 20.5666
rfoot -26.9124 -40.6139
rtoes 19.7516
lfemur 9.94534 -16.7398 -34.9254
ltibia 11.4566
lfoot -19.7161 18.0804
ltoes -16.3674
641
root 7.10737 15.2261 22.8325 179.672 -1.06792 -183.116
lowerback 5.60491 -0.665996 -1.80976
upperback -4.92545 -1.17339 0.415845
thorax -8.28746 -0.511305 1.6112
lowerneck -2.53055 -2.0265 -4.5072
upperneck 4.36795 -2.58592 2.25004
head 1.90435 -1.3018 1.42134
rclavicle -8.15017e-015 1.39149e-014
rhumerus -45.2894 3.32832 -85.186
rradius 29.4745
rwrist 23.3891
rhand -0.0703488 -52.229
rfingers 7.12502
rthumb 25.523 -80.5394
lclavicle -8.15017e-015 1.39149e-014
lhumerus -48.6438 -18.867 105.044
lradius 39.4204
lwrist -5.52532
lhand 3.55051 -35.1306
lfingers 7.12502
lthumb 28.9865 -7.36455
rfemur -33.1503 31.3509 4.69636
rtibia 20.2983
rfoot -27.7179 -41.9458
rtoes 19.0115
lfemur 10.107 -16.8185 -34.8097
ltibia 11.2883
lfoot -19.8164 17.7648
ltoes -15.97
642
root 7.12067 15.218 22.7541 179.728 -1.27094 -183.103
lowerback 5.47268 -0.620996 -1.82036
upperback -4.86523 -1.10725 0.42329
thorax -8.14701 -0.479233 1.61308
lowerneck -2.63444 -2.0174 -4.49438
upperneck 4.239 -2.57704 2.34218
head 1.88233 -1.29536 1.4483
rclavicle -3.23025e-015 -2.78299e-015
rhumerus -45.8309 4.12184 -85.6578
rradius 30.6073
rwrist 22.3146
rhand 0.534669 -53.0727
rfingers 7.12502
rthumb 26.1024 -81.2989
lclavicle -3.23025e-015 -2.78299e-015
lhumerus -48.5526 -18.7022 104.791
lradius 39.3263
lwrist -4.7049
lhand 2.50151 -34.2147
lfingers 7.12502
lthumb 27.9841 -6.28075
rfemur -33.3131 31.8434 4.28739
rtibia 20.1539
rfoot -28.5434 -42.3685
rtoes 19.0512
lfemur 10.5329 -16.8649 -34.8002
ltibia 11.0093
lfoot -19.9803 17.6042
ltoes -15.424
643
root 7.13289 15.2117 22.671 179.711 -1.51568 -183.107
lowerback 5.36309 -0.551208 -1.80373
upperback -4.78398 -1.00573 0.402731
thorax -7.99958 -0.431702 1.56627
lowerneck -2.84732 -2.09295 -4.25723
upperneck 4.28604 -2.6715 2.13149
head 1.92975 -1.34306 1.33482
rclavicle 4.96962e-015 9.14409e-015
rhumerus -45.3623 3.28385 -85.1637
rradius 29.9159
rwrist 22.8813
rhand 1.25704 -53.6536
rfingers 7.12502
rthumb 26.7938 -81.7758
lclavicle 4.96962e-015 9.14409e-015
lhumerus -48.3957 -18.5919 104.437
lradius 39.2506
lwrist -3.92198
lhand 2.20089 -33.562
lfingers 7.12502
lthumb 27.6967 -5.58155
rfemur -33.356 32.1834 4.02697
rtibia 20.2188
rfoot -29.8958 -42.3272
rtoes 21.2035
lfemur 11.1981 -16.8449 -34.8163
ltibia 10.4421
lfoot -20.0961 17.3401
ltoes -14.3959
